PathFileType	4	(X/Y/Z)	C:/Users/beibeiliu/ov580/test_trc/User2\sequence.13_training_dense_right.trc
DataRate	CameraRate	NumFrames	NumMarkers	Units	OrigDataRate	OrigDataStartFrame	OrigNumFrames
120	120	20	19	mm	120	1	336
Frame#	Time	ThumbCMC			ThumbMCP			ThumbIP			ThumbTip			IndexMCP			IndexPIP			IndexTip			MiddleMCP			MiddlePIP			MiddleTip			RingMCP			RingPIP			RingTip			PinkyMCP			PinkyPIP			PinkyTip			BackHand1			BackHand2			BackHand3	
		X0	Y0	Z0	X1	Y1	Z1	X2	Y2	Z2	X3	Y3	Z3	X4	Y4	Z4	X5	Y5	Z5	X6	Y6	Z6	X7	Y7	Z7	X8	Y8	Z8	X9	Y9	Z9	X10	Y10	Z10	X11	Y11	Z11	X12	Y12	Z12	X13	Y13	Z13	X14	Y14	Z14	X15	Y15	Z15	X16	Y16	Z16	X17	Y17	Z17	X18	Y18	Z18	
0	0	30.3834	-15.0309	111.076	-1.39698	-22.2592	99.5005	-27.0886	-31.9621	78.1959	-44.0452	-41.2954	64.0256	29.3621	-5.52407	27.1656	18.6931	-6.16235	-1.97249	8.83542	-4.95402	-23.6751	59.8842	-4.504	14.7533	53.285	-5.22338	-15.6792	54.275	-6.20215	-47.9794	84.2321	-16.9265	16.1712	86.5728	-20.4792	-10.6566	90.3015	-22.5575	-39.4548	106.928	-31.3763	30.6488	117.023	-38.9569	8.49784	127.185	-40.991	-10.4621	87.9606	-4.42254	70.5574	93.0283	5.74149	103.51	56.4857	5.62018	91.9896	
1	0.00833333	26.74	-14.9272	106.513	2.51237	-23.1729	99.0127	-26.4725	-31.9088	76.4469	-46.5987	-41.1174	67.9566	28.5867	-6.5188	26.7298	15.9617	-4.96858	-0.97238	10.6076	-5.46482	-28.3517	55.4623	-5.01663	15.6551	51.0182	-5.58819	-20.0394	52.229	-5.91619	-50.1637	81.1436	-16.5537	13.3793	89.8612	-21.3156	-8.11917	87.7978	-22.7295	-39.697	105.527	-31.9909	30.7725	117.068	-39.406	6.93754	123.78	-41.6984	-15.6123	87.0667	-5.21028	70.1313	92.7298	4.40674	102.468	54.9229	6.22307	88.3422	
2	0.0166667	27.064	-14.1454	111.603	1.91517	-23.181	96.3823	-27.5732	-31.3604	77.6303	-44.5197	-40.4883	65.3045	28.7198	-6.44116	25.7819	16.0301	-5.63207	2.53892	11.7877	-5.43075	-25.4493	54.7053	-4.39261	10.2762	50.5348	-5.20667	-19.8794	52.0007	-6.25762	-52.0686	83.8485	-16.8938	14.3848	85.4936	-20.9317	-8.60645	88.0676	-23.6578	-38.8563	105.957	-30.6126	28.8239	116.128	-39.9357	8.98395	123.153	-41.0386	-12.0149	87.779	-4.91017	68.4285	95.3404	4.97397	98.7055	57.2207	6.85533	88.9908	
3	0.025	25.1612	-14.4371	109.175	0.255865	-22.8249	99.7803	-27.3908	-31.7998	76.0222	-47.1334	-41.2694	65.8026	26.8264	-6.59625	28.3453	14.8254	-6.08589	-1.38249	12.1638	-5.70948	-26.9722	58.6121	-4.95357	12.1182	53.9215	-6.06442	-21.1583	53.999	-7.89541	-50.2588	82.0105	-15.9813	12.8642	86.6244	-20.5161	-12.3446	86.2933	-23.7762	-39.2806	105.319	-30.7224	30.25	113.955	-39.5972	10.5913	125.037	-41.5658	-15.3206	84.8524	-3.06892	68.7932	93.9665	3.15633	102.126	52.6355	5.50393	86.5462	
4	0.0333333	23.7884	-13.7652	108.329	1.00165	-23.1662	98.4765	-27.2934	-31.6408	77.674	-46.6541	-41.6507	64.9092	27.4772	-6.23526	24.5521	15.5681	-5.83377	2.03075	12.6597	-6.75738	-25.976	54.4152	-4.84941	16.4232	51.6777	-6.88885	-20.3952	50.9896	-7.35288	-47.7457	81.2485	-17.1067	18.297	83.5277	-20.8047	-12.5599	86.4129	-22.625	-40.2096	106.098	-31.6375	33.5719	115.357	-39.1795	6.37777	124.415	-43.131	-15.5285	85.8822	-4.00097	72.3563	96.7379	4.5727	101.717	58.4918	5.22148	89.7746	
5	0.0416667	24.0349	-14.9042	107.042	2.64182	-24.4121	97.0034	-24.2074	-33.1538	80.9809	-44.451	-42.0658	67.5136	25.0339	-7.23754	26.6591	19.0678	-7.02154	-1.62485	6.32182	-5.5705	-27.364	56.9415	-5.56841	15.7321	54.7643	-6.75623	-17.24	50.8237	-8.07726	-46.179	80.391	-17.1474	14.763	86.7832	-20.9971	-9.10014	84.3336	-24.0311	-36.2905	107.985	-32.3336	30.4206	112.725	-39.1041	9.6127	126.371	-41.9275	-15.8488	89.5771	-5.86944	69.1508	93.4259	3.04254	99.5258	57.4274	4.54136	85.9122	
6	0.05	26.0781	-15.8412	107.315	-0.544462	-23.0666	99.3677	-29.8587	-31.6916	80.2134	-48.2076	-41.8251	70.1047	25.9707	-7.38355	26.015	13.6376	-6.451	-0.572091	11.3908	-6.78838	-27.5877	53.7741	-4.95572	14.889	51.966	-7.12452	-17.0954	50.8312	-8.6955	-48.3757	84.3265	-17.3255	14.9486	87.6279	-21.5645	-9.26902	87.7909	-24.1891	-36.1855	104.517	-31.9226	32.6404	116.749	-40.9841	8.31643	125.815	-43.2588	-16.3621	86.2171	-4.05385	72.1815	91.1783	3.28905	102.074	54.9691	4.22551	86.9638	
7	0.0583333	25.8693	-15.5192	111.781	-0.40569	-23.3786	98.9258	-28.3083	-32.2346	80.6762	-48.7483	-41.155	68.4092	23.9422	-6.39923	26.3279	16.0695	-7.2947	-3.08064	8.29213	-5.78882	-29.3556	55.4301	-6.06431	12.7505	51.7343	-7.59033	-18.7721	52.9057	-8.99876	-52.8147	84.7256	-18.3419	14.3617	88.5012	-21.7932	-10.6389	84.7523	-23.2595	-36.3944	104.637	-31.512	33.9342	112.953	-39.5602	10.7293	125.627	-41.7713	-13.5673	84.9802	-3.62599	67.7822	92.2573	4.12714	103.527	53.2601	5.55051	90.1055	
8	0.0666667	27.5564	-16.7244	106.289	0.206934	-24.4651	99.3193	-25.2386	-33.4616	81.6103	-46.822	-42.8529	70.4464	25.9841	-7.31998	24.6602	15.6343	-6.2895	-0.894368	11.1284	-6.57773	-25.0448	56.7053	-5.64301	14.1192	52.732	-7.71553	-21.054	51.11	-9.15325	-46.405	81.6822	-17.0864	18.1744	85.0691	-21.9631	-7.85043	86.6401	-23.4445	-39.119	106.531	-31.6376	32.3162	112.699	-39.9808	7.62182	125.576	-43.8693	-11.0957	89.9196	-4.28147	68.8077	95.4578	2.55367	100.059	57.3983	4.05796	90.4804	
9	0.075	26.9634	-15.7351	111.861	0.167559	-26.2797	99.3011	-25.9284	-34.7651	82.5006	-46.8667	-44.2076	68.6688	28.3344	-6.61829	24.857	15.1074	-6.83292	3.36577	9.255	-6.65881	-27.103	53.387	-4.39029	12.4553	52.3321	-7.186	-20.2177	50.0494	-7.68413	-46.5307	82.9182	-17.4315	18.1338	84.1266	-22.0598	-7.71642	84.9379	-24.0574	-37.2043	108.762	-32.3005	32.4642	113.793	-39.7029	8.40121	121.284	-41.1969	-13.9436	85.5893	-6.28877	72.5354	95.5875	1.17575	99.394	59.9774	5.44163	91.0639	
10	0.0833333	29.1023	-16.2593	108.329	-1.58327	-26.1556	98.2928	-28.2567	-37.5727	82.1844	-44.9732	-48.5222	66.3834	27.4448	-5.2392	29.5873	14.2467	-4.76581	-0.0456979	12.9587	-4.69104	-24.8276	56.3551	-4.3378	13.2208	55.8825	-5.4498	-16.459	52.8077	-7.29378	-47.0165	84.8657	-16.5692	14.5824	86.191	-20.4798	-8.53601	86.0621	-23.3104	-37.016	109.428	-31.8617	32.1631	113.494	-38.4861	8.05099	122.759	-40.3409	-17.4012	86.6958	-4.66815	74.3069	95.6051	4.04499	103.66	59.2698	3.78804	92.3229	
11	0.0916667	29.4205	-17.3798	112.923	5.11322	-28.7228	97.8779	-25.9571	-40.5822	77.3929	-44.4795	-51.9193	63.7795	25.7895	-3.58005	27.9656	17.4119	-2.55741	0.20638	10.5	-2.85107	-26.9159	54.8711	-2.22377	17.0487	54.722	-2.85484	-17.6556	50.3418	-3.88369	-47.035	84.7696	-14.0516	15.2949	87.7325	-19.3476	-8.60445	85.3079	-22.9675	-39.4945	105.923	-28.5824	27.5936	115.709	-36.8746	4.7132	123.893	-41.1214	-16.5415	88.751	-3.4491	69.1729	95.3077	3.7463	102.742	55.1923	4.71173	89.5604	
12	0.1	27.8837	-17.6099	112.656	5.00398	-30.5168	97.9186	-20.6784	-43.5601	80.848	-38.4874	-54.8025	65.5953	25.6846	-0.673838	26.7797	18.825	-1.16862	0.797152	9.7243	-1.68121	-21.6171	55.1145	0.696345	12.8565	57.2031	-2.29848	-19.934	54.3739	-4.04206	-47.5694	84.3702	-13.2112	14.1219	89.7014	-19.4668	-12.1199	84.1676	-23.1394	-39.2933	109.362	-27.2988	28.2511	113.561	-36.3549	4.98208	119.387	-42.8653	-18.4575	88.4233	-0.135711	71.317	95.9195	3.1875	102.872	57.4683	7.44441	93.7843	
13	0.108333	32.5914	-18.1596	108.795	5.74826	-31.9957	97.2589	-17.5401	-44.0324	77.6004	-35.0102	-56.6976	65.5436	31.5584	-0.541804	28.8044	21.5361	0.82447	1.2887	11.3268	1.26468	-26.7455	62.1323	1.77028	17.1372	58.6631	0.389894	-15.4617	55.9442	-2.4611	-49.8066	88.1084	-13.3561	13.1806	84.2833	-19.624	-10.0453	85.5407	-27.808	-35.8466	110.999	-27.013	31.3909	114.487	-39.3601	3.07343	114.309	-47.2281	-16.9049	90.3038	-0.0955249	75.0649	97.7262	4.15205	102.465	58.5818	8.35358	94.846	
14	0.116667	32.1914	-17.8086	109.42	5.32368	-32.139	99.884	-16.3268	-44.9253	77.5145	-35.1914	-57.2235	59.7348	29.0964	3.06003	26.7757	21.585	2.35311	-0.399715	11.6209	2.80286	-23.2898	58.1582	3.6197	16.3188	59.5287	2.11848	-14.5966	54.694	-1.29455	-48.3997	88.5779	-13.506	14.2992	85.6969	-24.0155	-14.2815	79.4009	-40.1191	-38.9163	108.719	-27.5984	29.7763	113.644	-42.0314	4.91719	107.329	-60.0509	-18.8084	94.8129	0.160832	73.0089	98.0117	5.60851	104.917	60.411	7.28863	91.5402	
15	0.125	31.2479	-15.7154	109.127	8.59144	-31.9321	97.2544	-15.8937	-45.1438	77.9543	-30.7936	-57.6631	62.0569	29.3728	5.09826	28.1272	19.1286	4.83008	0.638609	10.9173	5.83635	-23.0993	59.4535	5.25186	13.895	54.5473	3.6406	-18.3252	52.5172	0.000994597	-46.8635	82.4062	-13.6003	12.6034	85.6719	-28.8397	-11.0803	74.3604	-56.3932	-29.6208	107.308	-28.8367	27.3688	105.785	-49.1008	4.55045	93.4845	-72.5163	-9.12325	97.1584	2.57603	73.0892	102.663	6.98284	101.528	62.6584	8.88437	94.7645	
16	0.133333	35.2939	-15.4218	108.442	7.44094	-31.1381	96.0824	-14.1475	-45.0175	72.8649	-31.2154	-58.3607	59.3264	30.1	6.70227	26.7485	19.2353	7.01139	1.7714	15.1723	7.03834	-27.2478	59.7912	6.3172	16.4929	56.2491	3.08717	-16.553	58.3166	-3.31943	-47.5113	81.7521	-15.6823	15.91	77.1095	-40.3683	-9.34361	63.9885	-72.4728	-10.3031	105.444	-30.8958	28.1626	94.3786	-58.8091	7.73507	78.1619	-83.7208	9.67319	95.7564	3.66772	72.8591	103.756	7.73853	104.156	64.546	9.73505	94.6933	
17	0.141667	31.6	-14.0774	107.207	9.27042	-32.1199	91.9456	-15.7629	-46.5511	76.9385	-30.4634	-59.0101	62.5983	32.1489	6.74777	24.7965	22.3948	6.96218	-0.657727	15.7414	5.43278	-25.9353	61.6863	4.51253	11.6841	58.0155	0.478917	-21.4443	53.8028	-5.17184	-50.1397	77.742	-20.8813	11.7898	73.9725	-52.5818	-3.05103	59.479	-77.2594	11.5182	99.0334	-35.5386	23.8896	87.752	-66.5112	15.3345	74.5107	-88.4262	29.4189	96.3468	4.07201	70.4649	103.312	8.21491	104.59	61.1217	10.8727	93.9973	
18	0.15	30.5283	-14.4317	111.29	7.95223	-32.6379	92.7076	-16.1665	-48.5541	77.9078	-32.7772	-61.4231	62.4256	28.614	5.90188	27.7068	21.385	6.13241	1.67779	15.901	5.67588	-29.0986	57.7463	5.05054	10.229	58.8183	-0.628068	-18.1336	57.9217	-8.51441	-52.0252	81.1579	-24.2646	13.7658	71.4273	-53.9328	1.25023	59.5611	-78.6676	27.4601	98.3118	-36.767	26.6036	82.4868	-70.1739	23.604	72.5151	-83.1867	45.7981	91.0009	4.61939	68.2603	98.8163	6.43162	101.915	63.0737	11.4819	91.7389	
19	0.158333	30.0549	-15.8843	107.801	10.1183	-34.4026	91.1639	-12.0931	-50.7892	76.8514	-30.7984	-65.1879	62.6241	29.0111	3.34451	29.1701	18.5902	4.63358	1.10997	10.2671	3.89555	-24.1567	61.6226	2.92523	9.58871	57.2015	-2.19131	-21.1445	54.394	-9.0039	-52.9655	77.6095	-29.5919	10.6109	67.3119	-59.1081	6.14461	60.1088	-77.6919	38.5701	95.6071	-39.1016	28.3488	82.779	-71.4875	29.6171	66.3651	-77.7998	59.0013	89.7471	4.35539	65.4555	99.9691	7.73745	97.928	63.6758	10.7358	92.8965	
